<svg xmlns="http://www.w3.org/2000/svg" viewBox="0 0 1200 1200">
  <defs>
    <radialGradient id="dawn" cx="0.5" cy="0.32" r="0.75">
      <stop offset="0" stop-color="#f3d9a8" stop-opacity="0.4"/>
      <stop offset="1" stop-color="#f3d9a8" stop-opacity="0"/>
    </radialGradient>
    <linearGradient id="bg" x1="0" y1="0" x2="0" y2="1">
      <stop offset="0" stop-color="#f8f1e0"/>
      <stop offset="1" stop-color="#eee2c6"/>
    </linearGradient>
  </defs>
  <rect width="1200" height="1200" fill="url(#bg)"/>
  <rect width="1200" height="1200" fill="url(#dawn)"/>
  <rect x="46" y="46" width="1108" height="1108" fill="none" stroke="#b3893d" stroke-opacity="0.5" stroke-width="2"/>
  <!-- Branch -->
  <path d="M180 300 C420 380 700 480 1020 420" fill="none" stroke="#5f6849" stroke-width="9" stroke-linecap="round"/>
  <path d="M430 372 C480 430 500 500 490 570" fill="none" stroke="#5f6849" stroke-width="6" stroke-linecap="round"/>
  <path d="M700 448 C730 500 740 560 725 620" fill="none" stroke="#5f6849" stroke-width="6" stroke-linecap="round"/>
  <g fill="none" stroke="#5f6849" stroke-width="4.5" stroke-linecap="round">
    <path d="M330 350 c-30 -6 -44 -22 -47 -50 c28 3 43 18 47 50 Z"/>
    <path d="M560 408 c28 -10 48 -8 66 4 c-20 14 -46 14 -66 -4 Z"/>
    <path d="M840 432 c30 -6 44 -22 47 -50 c-28 3 -43 18 -47 50 Z"/>
  </g>
  <!-- Shiuli blossoms: white petals, orange stems -->
  <g>
    <g transform="translate(490, 590)">
      <g fill="#fdfaf2" stroke="#d9c9a8" stroke-width="2">
        <ellipse cx="0" cy="-26" rx="10" ry="22"/>
        <ellipse cx="24" cy="-8" rx="10" ry="22" transform="rotate(72)"/>
        <ellipse cx="15" cy="21" rx="10" ry="22" transform="rotate(144)"/>
        <ellipse cx="-15" cy="21" rx="10" ry="22" transform="rotate(216)"/>
        <ellipse cx="-24" cy="-8" rx="10" ry="22" transform="rotate(288)"/>
      </g>
      <circle r="9" fill="#d9822b"/>
    </g>
    <g transform="translate(725, 645) scale(0.8)">
      <g fill="#fdfaf2" stroke="#d9c9a8" stroke-width="2">
        <ellipse cx="0" cy="-26" rx="10" ry="22"/>
        <ellipse cx="24" cy="-8" rx="10" ry="22" transform="rotate(72)"/>
        <ellipse cx="15" cy="21" rx="10" ry="22" transform="rotate(144)"/>
        <ellipse cx="-15" cy="21" rx="10" ry="22" transform="rotate(216)"/>
        <ellipse cx="-24" cy="-8" rx="10" ry="22" transform="rotate(288)"/>
      </g>
      <circle r="9" fill="#d9822b"/>
    </g>
    <g transform="translate(905, 520) scale(0.65)">
      <g fill="#fdfaf2" stroke="#d9c9a8" stroke-width="2">
        <ellipse cx="0" cy="-26" rx="10" ry="22"/>
        <ellipse cx="24" cy="-8" rx="10" ry="22" transform="rotate(72)"/>
        <ellipse cx="15" cy="21" rx="10" ry="22" transform="rotate(144)"/>
        <ellipse cx="-15" cy="21" rx="10" ry="22" transform="rotate(216)"/>
        <ellipse cx="-24" cy="-8" rx="10" ry="22" transform="rotate(288)"/>
      </g>
      <circle r="9" fill="#d9822b"/>
    </g>
  </g>
  <!-- Fallen shiuli on the ground -->
  <g fill="#fdfaf2" stroke="#d9c9a8" stroke-width="2">
    <ellipse cx="330" cy="1050" rx="14" ry="8"/>
    <ellipse cx="420" cy="1085" rx="14" ry="8"/>
    <ellipse cx="760" cy="1060" rx="14" ry="8"/>
    <ellipse cx="860" cy="1095" rx="14" ry="8"/>
  </g>
  <g fill="#d9822b">
    <circle cx="330" cy="1046" r="4"/><circle cx="420" cy="1081" r="4"/>
    <circle cx="760" cy="1056" r="4"/><circle cx="860" cy="1091" r="4"/>
  </g>
  <text x="600" y="880" text-anchor="middle" font-family="Georgia, 'Times New Roman', serif" font-style="italic" font-size="64" fill="#8d4c3e">shiuli mornings</text>
</svg>
